<svg width="356" height="296" viewBox="0 0 356 296" fill="none" xmlns="http://www.w3.org/2000/svg">
<g clip-path="url(#clip0_429_1070)">
<rect width="355" height="296" transform="translate(0.5)" fill="white"/>
<path fill-rule="evenodd" clip-rule="evenodd" d="M102.5 255.346C39.2597 229.779 39.6495 261.875 11.4624 214.546C-16.7246 167.218 9.32994 97.4876 92.0455 75.9464C174.761 54.4052 289.7 -47.2436 351.059 121.786C368.301 169.285 335.075 295.8 215.701 295.548C130.247 295.365 145.241 272.146 102.5 255.346Z" fill="#D2D8E0"/>
<path fill-rule="evenodd" clip-rule="evenodd" d="M206.756 157.546C206.457 157.312 206.534 156.593 206.623 156.11C207.185 153.043 209.897 150.989 212.288 149.073C214.679 147.157 217.153 144.583 216.905 141.472C216.57 137.269 218.507 133.283 219.689 129.246C220.872 125.208 221.081 120.234 218.068 117.381C217.023 116.392 215.692 115.772 214.64 114.792C213.588 113.812 212.832 112.221 213.43 110.896C212.92 111.201 212.411 111.507 211.901 111.812C211.759 109.763 209.431 108.851 207.679 107.869C204.674 106.185 202.477 102.784 202.718 99.2684C202.96 95.7529 206.025 92.5152 209.44 92.7135C210.906 92.7986 212.789 93.2625 213.518 91.9486C216.208 87.095 223.186 86.5358 226.355 81.9992C227.045 81.0106 230.377 78.0588 230.048 80.1464C229.317 84.7876 233.382 83.4409 234.986 85.3837C241.976 93.8522 242.514 106.685 241.253 118.846C238.556 144.87 222.471 169.91 206.756 157.546Z" fill="white"/>
<path fill-rule="evenodd" clip-rule="evenodd" d="M225.729 87.7322C227.357 85.9814 229.729 84.9464 232.12 84.9464C236.07 86.9939 239.977 89.7641 243.841 93.2569C246.264 92.2979 247.972 92.1031 248.963 92.6724C250.451 93.5264 251.362 95.1463 251.794 96.8067C253.177 102.131 250.235 107.639 246.616 111.781C245.037 113.588 243.278 115.313 242.312 117.509C241.345 119.704 241.388 122.568 243.147 124.199C247.546 128.275 249.014 134.706 248.768 140.699C248.523 146.692 246.814 152.517 245.857 158.438C244.795 165.01 244.663 171.731 245.464 178.339C245.712 180.38 246.069 182.468 247.134 184.226C248.2 185.984 250.129 187.358 252.179 187.207C251.453 188.245 249.703 188.317 248.894 187.342C249.69 188.17 250.487 188.998 251.284 189.827C250.32 189.625 249.356 189.423 248.392 189.221C256.449 193.801 264.792 197.878 273.357 201.417C272.857 199.734 271.092 198.818 269.496 198.088C265.037 196.049 260.578 194.01 256.12 191.971C262.818 192.578 269.286 195.488 274.185 200.097C280.087 205.65 289.638 205.339 296.038 210.309C297.41 211.374 298.645 212.735 299.105 214.41C299.753 216.765 298.717 219.339 297.012 221.086C295.306 222.833 293.024 223.888 290.741 224.753C283.921 227.336 276.587 228.555 269.298 228.317C268.68 227.23 269.298 225.782 270.304 225.039C271.311 224.297 272.593 224.069 273.815 223.806C279.016 222.688 283.997 220.551 288.392 217.552C289.379 216.878 290.451 215.669 289.817 214.655C289.582 214.279 289.163 214.064 288.763 213.873C281.861 210.578 274.152 208.994 266.511 209.301C268.766 208.893 271.022 208.486 273.278 208.078C267.316 204.522 261.049 201.478 254.568 198.991C252.553 198.218 250.1 197.553 248.387 198.866C244.207 202.072 240.026 205.278 235.846 208.484C241.236 208.579 246.601 209.905 251.415 212.332C250.314 214.739 247.838 216.457 245.198 216.646C246.447 215.364 247.696 214.083 248.945 212.802C240.047 207.285 227.356 213.05 218.445 207.554C214.47 205.103 211.835 200.685 207.526 198.885C203.416 197.168 198.733 198.215 194.409 199.284C191.573 199.985 188.593 200.764 186.5 202.803C186.558 200.752 188.507 199.267 190.424 198.536C192.341 197.805 194.47 197.468 196.083 196.2C197.72 194.915 198.557 192.884 199.848 191.251C201.139 189.618 203.427 188.33 205.25 189.333C204.688 184.997 208.372 181.462 210.869 177.873C213.712 173.787 215.232 168.794 215.148 163.816C211.979 165.5 210.555 169.841 212.109 173.076C212.799 174.512 211.424 176.325 209.835 176.438C208.246 176.551 206.787 175.381 206.069 173.959C205.35 172.536 205.219 170.899 205.112 169.309C204.96 167.062 204.834 164.768 205.413 162.592C206.509 158.468 209.948 155.401 213.517 153.064C217.086 150.728 221.004 148.816 223.996 145.774C227.297 142.42 229.253 137.777 229.348 133.071C230.724 139.341 227.621 87.3042 225.729 87.7322ZM211.213 174.015C211.247 172.718 210.844 171.414 210.086 170.362C209.822 171.665 210.261 173.088 211.213 174.015Z" fill="white"/>
<path fill-rule="evenodd" clip-rule="evenodd" d="M166.532 171.969C163.932 173.796 161.241 175.722 159.729 178.511C158.216 181.3 158.286 185.216 160.754 187.216C166.795 192.111 164.863 201.858 168.469 208.734C170.448 212.508 174.256 216.083 173.188 220.205C172.351 223.436 168.876 225.123 165.781 226.395C164.327 226.992 162.79 227.602 161.23 227.399C159.671 227.196 158.143 225.856 158.336 224.301C158.68 221.519 163.566 221.016 163.654 218.215C163.678 217.428 163.275 216.699 162.884 216.016C160.239 211.394 157.594 206.773 154.949 202.152C151.855 208.611 150.613 215.937 151.406 223.05C151.655 225.282 149.985 227.373 147.954 228.348C145.924 229.324 143.598 229.427 141.345 229.514C139.5 229.584 137.536 229.626 135.951 228.681C134.367 227.736 133.479 225.407 134.671 224.002C135.745 222.738 137.713 222.908 139.278 222.353C143.436 220.879 143.614 215.165 143.023 210.807C141.881 202.388 140.739 193.969 139.596 185.549C139.018 181.286 138.371 176.843 135.903 173.313C127.412 161.172 138.521 142.658 130.493 130.209C128.028 126.387 125.55 122.42 124.724 117.953C123.899 113.485 125.096 108.348 128.8 105.699C131.58 103.712 131.914 99.8153 132.294 96.4271C132.991 90.2219 134.693 84.1298 137.315 78.4586C131.336 74.113 124.088 71.522 116.699 71.089C116.928 72.4347 117.415 73.7363 118.127 74.9023C113.874 73.3102 110.597 69.3686 109.818 64.9091C109.138 66.4851 108.457 68.0611 107.776 69.637C101.921 57.7075 106.135 43.5354 110.421 30.9614C111.669 27.3002 112.917 23.639 114.165 19.9778C115.667 15.5726 117.814 10.5435 122.338 9.39439C125.123 8.68711 128.877 11.3608 127.407 13.8216C123.755 12.9069 125.736 16.5819 127.112 15.0268C130.232 11.4998 132.777 7.30844 136.512 4.41674C143.633 -1.09637 154.229 -0.745229 161.959 3.88154C169.69 8.50832 174.755 16.7139 177.262 25.345C177.625 26.5941 177.933 27.9742 177.395 29.1593C176.857 30.3443 175.098 31.0072 174.209 30.0552C172.97 28.7289 171.25 31.2362 171.331 33.0461C171.748 42.3222 177.666 50.3633 180.42 59.2343C183.105 67.8862 182.723 77.1462 182.315 86.1931C181.748 98.774 180.179 133.581 179.669 138.38C178.71 147.421 176.713 156.392 176.836 165.483C176.993 177.164 180.635 188.494 184.475 199.532C186.073 204.126 187.777 208.82 190.956 212.508C194.135 216.196 199.151 218.712 203.9 217.597C200.531 220.964 194.777 220.846 190.595 218.556C186.413 216.265 183.469 212.287 180.793 208.349C179.086 205.837 174.446 210.836 172.43 208.562C174.91 208.043 177.254 206.898 179.184 205.262C174.967 194.165 170.75 183.067 166.532 171.969ZM144.874 39.9685C144.442 39.5319 143.768 39.0991 143.266 39.4525C143.819 40.0109 143.655 41.0893 142.96 41.4588C142.133 41.1572 142.428 39.9355 142.196 39.0891C141.898 38.0001 140.636 37.5268 139.533 37.2696C133.872 35.9494 127.288 35.7244 123.526 31.307C123.176 30.8959 122.846 30.4438 122.371 30.185C121.401 29.6559 120.121 30.146 119.432 31.0082C118.743 31.8705 118.512 33.0016 118.351 34.092C117.537 39.6137 118.011 45.3197 119.724 50.6333C120.033 51.5922 120.399 52.5667 121.088 53.3039C122.971 55.319 126.228 54.753 128.952 54.2905C131.487 53.8602 134.061 53.6599 136.632 53.6928C137.824 53.7081 138.999 53.437 140.16 53.1675C143.227 52.4553 146.295 51.7431 149.362 51.0308C149.401 46.9491 147.749 42.8769 144.874 39.9685Z" fill="white"/>
<path fill-rule="evenodd" clip-rule="evenodd" d="M257.777 279.379L265.077 280.459C266.413 280.657 267.889 280.932 268.7 281.993C268.326 282.32 267.759 282.269 267.264 282.198C264.44 281.793 261.615 281.388 258.791 280.984L262.151 284.844C262.73 285.509 263.354 286.204 264.203 286.468C264.947 286.7 266.014 286.773 266.102 287.534C265.079 287.963 263.864 287.699 262.921 287.119C261.977 286.54 261.251 285.683 260.542 284.841C259.402 283.487 258.262 282.134 257.122 280.78C256.825 280.426 256.522 279.902 256.827 279.553C257.047 279.302 257.444 279.33 257.777 279.379ZM296.868 249.346C297.093 250.32 296.086 251.073 295.258 251.598C288.616 255.813 285.331 263.77 282.444 271.225C282.221 271.801 282.162 272.706 282.759 272.799C283.916 270.621 286.186 269.111 288.593 268.917C286.766 270.191 286.035 272.613 285.92 274.879C285.806 277.145 286.177 279.423 285.969 281.682C284.833 281.571 284.541 280.022 284.555 278.849C284.582 276.529 284.609 274.209 284.637 271.888C280.441 274.472 279.433 280.155 278.842 285.146C278.608 285.5 278.016 285.348 277.81 284.975C277.604 284.603 277.666 284.142 277.737 283.72C279.454 273.562 283.359 263.802 289.092 255.343C283.554 258.311 278.826 262.858 275.579 268.341C274.747 266.791 275.933 264.941 277.107 263.645C282.638 257.544 289.414 252.641 296.868 249.346ZM245.35 243.946C248.275 245.98 251.199 248.013 254.124 250.046C258.763 253.271 263.449 256.537 267.209 260.752C266.95 256.901 267.918 252.977 269.937 249.687C270.176 249.298 270.595 248.862 271.012 249.051C271.306 249.184 271.391 249.554 271.438 249.874C272.267 255.402 273.096 260.929 273.924 266.457C271.543 262.03 270.377 256.958 270.585 251.936C269.136 254.266 267.948 256.955 268.314 259.673C269.209 266.307 278.53 269.526 278.9 276.21C270.775 266.2 262.321 255.966 250.99 249.808C256.266 257.299 262.289 264.265 268.942 270.567C270.819 272.345 272.904 274.434 272.77 277.016C268.345 271.816 260.791 269.512 254.215 271.356C257.993 272.759 261.675 274.421 265.227 276.326C267.312 277.443 269.529 278.866 270.151 281.146C264.154 276.659 257.199 273.457 249.89 271.816C255.423 268.592 262.64 268.474 268.276 271.514C259.762 263.84 252.791 254.641 245.874 245.502C245.53 245.047 245.166 244.487 245.35 243.946ZM209.93 213.351C223.605 215.973 237.046 219.805 250.045 224.788C251.586 225.379 253.168 226.016 254.329 227.187C255.715 228.585 256.32 230.554 256.878 232.441C259.219 240.358 261.559 248.275 263.9 256.192C259.69 247.927 256.681 239.054 254.994 229.935C244.63 234.068 233.079 233.484 221.924 233.159C204.735 232.657 187.524 232.921 170.359 233.95C171.506 234.207 172.652 234.464 173.799 234.72C171.181 235.597 168.353 235.525 165.593 235.427C144.767 234.692 123.974 233.031 103.296 230.452C98.8881 229.903 94.2542 229.218 90.7524 226.488L81.2798 254.601C80.7393 256.205 78.9492 258.146 77.7916 256.91C76.4327 255.459 74.0822 256.971 72.7393 258.436C67.6363 264.006 62.5334 269.576 57.4305 275.146C60.4204 269.974 64.1997 265.257 68.5975 261.208C63.732 261.121 58.8722 263.296 55.7001 266.98C56.9183 259.611 64.5068 253.898 71.9375 254.756C66.9822 255.44 62.3159 258.034 59.124 261.879C64.5101 261.179 69.6991 259.023 73.9919 255.7C75.5384 254.503 77.9514 254.613 79.3823 255.946C82.3669 247.025 85.3514 238.104 88.336 229.183C88.7683 227.891 89.1297 226.272 88.1478 225.326C104.944 219.766 122.591 216.779 140.284 216.5C126.22 218.683 112.157 220.867 98.0932 223.05C95.9306 223.386 93.3235 224.109 92.8139 226.234C95.2399 226.849 97.6662 227.464 100.106 228.022C137.446 236.551 176.357 231.284 214.659 231.745C227.898 231.904 241.475 232.709 254.052 228.577C235.038 219.766 214.414 214.436 193.507 212.929C198.836 211.469 204.503 212.311 209.93 213.351ZM51.9114 221.583C57.9436 223.023 63.3667 226.251 68.6828 229.435C72.6106 231.787 76.9866 234.844 77.369 239.353L77.3795 239.511L77.2697 239.386C73.055 234.644 68.0723 230.581 62.5714 227.404C66.3516 231.67 70.1318 235.936 73.912 240.202C74.8895 241.305 75.9054 242.69 76.1691 244.064C76.2213 244 76.3028 243.958 76.3959 243.966L76.367 243.946C76.6438 244.02 76.7876 244.33 76.6429 244.542C76.4946 244.559 76.3308 244.525 76.2209 244.444C76.2724 245.024 76.1738 245.598 75.8663 246.142C74.5479 244.002 72.8898 242.07 70.9725 240.44C72.4891 243.713 74.0056 246.986 75.5222 250.258C73.9796 249.748 72.6214 248.702 71.7366 247.343C71.5344 248.471 72.0345 249.694 72.97 250.36C71.4258 251.136 69.6792 251.506 67.9518 251.426C68.6476 251.93 69.3435 252.434 70.0393 252.938L55.6285 253.546C56.0719 252.771 56.6864 252.092 57.4158 251.574C46.1816 250.37 37.9705 240.97 43.0041 244.365C51.2413 249.922 61.7989 251.943 71.5172 249.823C66.1378 248.257 61.0828 245.594 56.755 242.048C59.8232 241.294 63.2231 242.034 65.7022 243.984L65.8811 244.127L59.1813 234.808C56.9478 231.701 54.7143 228.594 52.4808 225.487C59.117 232.384 65.7533 239.282 72.3896 246.18C68.8801 235.863 61.4402 226.927 51.9114 221.583ZM66.8412 251.513L66.7729 251.59C66.554 251.429 66.3348 251.882 66.5302 252.071C66.7722 252.147 67.0538 252.083 67.2375 251.908C67.1054 251.776 66.9733 251.644 66.8412 251.513ZM308.522 220.566C313.608 221.671 318.695 222.776 323.782 223.881C325.342 224.22 327.315 225.129 327.053 226.724C326.947 227.375 326.461 227.887 325.983 228.334C324.248 229.957 322.286 231.33 320.174 232.399L325.48 233.728C326.887 234.081 328.367 234.474 329.398 235.506C330.429 236.538 330.768 238.433 329.71 239.437C331.225 242.065 332.637 244.753 333.94 247.495C334.587 248.856 335.159 250.629 334.156 251.746C332.43 247.829 330.704 243.912 328.978 239.994C326.712 241.385 323.939 241.904 321.332 241.425C322.059 240.425 323.404 240.159 324.623 240.025C325.842 239.891 327.17 239.768 328.063 238.916C328.956 238.064 328.908 236.196 327.724 235.871C324.403 234.963 321.082 234.054 317.761 233.145C320.24 230.863 322.888 228.771 325.676 226.892C325.82 226.154 324.928 225.69 324.211 225.496C316.423 223.391 308.496 221.813 300.5 220.774C302.899 219.439 305.846 219.985 308.522 220.566ZM50.9911 242.153C51.3316 242.208 51.6015 242.478 51.8557 242.728C54.0029 244.834 56.6756 246.317 59.518 246.98C60.9389 247.311 62.5269 247.512 63.5001 248.672C58.6875 249.181 53.6964 247.055 50.5191 243.14C50.4263 243.025 50.3315 242.902 50.3063 242.753C50.245 242.389 50.6505 242.098 50.9911 242.153ZM60.8115 243.516C63.251 245.443 66.1096 246.841 69.1324 247.586C66.7216 245.617 63.8495 244.212 60.8115 243.516ZM66.3518 242.077C67.2542 244.373 69.1558 246.258 71.4645 247.147C70.0655 245.185 68.3283 243.462 66.3518 242.077ZM112.923 113.593C109.543 115.239 106.447 117.464 103.814 120.141C97.8929 126.16 90.2533 130.485 82.0306 132.471L102.848 120.69C102.518 118.403 99.0744 118.743 97.0046 119.786C93.4158 121.596 89.9206 123.612 86.7054 126.019C84.7973 127.448 82.9913 129.012 81.3056 130.695C74.7122 137.28 70.0722 145.581 66.5743 154.204C61.5478 166.594 58.717 180.053 59.9229 193.363C61.1288 206.672 66.6004 219.818 76.3201 229.03C76.6608 227.982 77.0016 226.933 77.3424 225.885C78.8398 226.629 80.6144 226.803 82.2287 226.364C80.2923 225.241 78.2554 224.016 77.2311 222.031C76.2067 220.047 76.7497 217.095 78.8628 216.353C76.8027 214.512 75.3871 211.969 74.9106 209.253C77.2351 208.826 79.5596 208.399 81.8841 207.972C79.6046 202.76 80.0605 196.448 83.0652 191.615C83.5365 190.857 84.2967 190.041 85.1645 190.259C86.5504 190.607 86.9558 193.288 88.2786 192.749L93.4461 185.439L98.4497 178.362L98.3674 178.484C96.3908 181.476 96.3127 185.627 98.2179 188.674C100.873 185.873 104.485 183.988 108.308 183.407C108.622 185.145 108.936 186.882 109.249 188.62C110.657 187.454 112.171 186.241 113.987 186.007C115.802 185.773 117.93 186.992 117.938 188.815C117.945 190.316 116.627 191.984 117.592 193.138C118.983 192.242 120.48 191.313 122.137 191.319C123.795 191.325 125.552 192.714 125.281 194.342C124.868 196.827 124.454 199.312 124.041 201.796C126.851 200.88 130.682 200.329 132.096 202.916C133.112 204.777 132.054 207.102 130.677 208.716C129.299 210.331 127.542 211.75 126.884 213.765C125.971 211.889 127.689 209.872 129.136 208.365C130.583 206.859 131.882 204.345 130.377 202.896C128.369 200.963 124.911 204.102 122.338 203.021C122.899 199.677 123.46 196.334 124.021 192.991C121.109 192.98 118.199 193.827 115.75 195.398C115.521 192.756 115.682 190.082 116.226 187.486C113.38 188.083 110.581 188.906 107.865 189.944C107.234 188.268 106.972 186.456 107.101 184.671L97.6322 190.187C97.3853 189.252 96.7421 188.428 95.8935 187.959C96.7543 192.933 97.6152 197.907 98.4761 202.881C95.7847 197.973 94.5301 192.294 94.9046 186.714C91.9584 188.596 89.8375 191.715 89.1756 195.139C87.3017 194.712 85.6478 193.412 84.7944 191.696C81.3494 196.526 80.8985 203.305 83.6738 208.545C81.4254 209.524 79.041 210.191 76.6102 210.523L80.9313 217.354C79.803 217.501 78.7276 218.025 77.9192 218.823C78.7384 222.522 81.8099 225.63 85.5101 226.504C83.7768 227.586 81.7073 228.126 79.6638 228.029C82.2035 228.762 84.595 230.001 86.6565 231.651C83.7285 231.185 80.8934 230.147 78.3601 228.612C79.6286 231.289 81.9396 233.458 84.6968 234.561C83.0516 234.626 81.3906 234.239 79.9455 233.453C81.5199 235.538 82.3152 238.193 82.1453 240.796C81.0306 238.612 79.916 236.428 78.8014 234.244C78.6791 236.409 78.5569 238.573 78.4346 240.737C78.1804 240.433 77.923 240.132 77.6626 239.833L77.4023 239.537L77.4627 239.394C78.4315 236.959 77.6911 234.099 76.2516 231.891C74.7753 229.627 72.6504 227.876 70.6802 226.021C62.3045 218.138 56.4372 208.036 50.6898 198.087C48.5274 194.344 46.365 190.601 44.2026 186.858C41.2991 181.832 38.2907 176.123 39.7652 170.513C39.9761 169.711 40.3097 168.888 40.9799 168.396C39.9389 169.575 40.7282 171.451 41.7974 172.604C42.8665 173.757 44.2625 174.819 44.4867 176.373C46.8955 193.066 57.2736 207.384 67.3318 220.951C54.9112 199.78 56.9316 172.521 66.9838 150.137C72.4526 137.96 80.699 126.279 92.8228 120.609C95.5225 119.347 98.361 118.408 101.192 117.472C105.102 116.179 109.013 114.886 112.923 113.593ZM269.241 231.809C269.58 231.888 269.978 232.041 270.041 232.39C270.094 232.685 269.87 232.951 269.656 233.156C268.559 234.208 267.25 235.028 265.834 235.549C265.388 235.713 265.4 236.43 265.754 236.753C266.108 237.075 266.624 237.111 267.098 237.131C284.632 237.847 302.166 238.564 319.7 239.281C319.53 240.187 318.355 240.37 317.453 240.344C300.84 239.871 284.232 239.242 267.63 238.457C265.912 238.375 263.583 237.561 263.916 235.838C264.233 234.203 266.554 234.183 267.806 233.112L260.3 232.047C263.198 231.202 266.305 231.119 269.241 231.809ZM167.447 234.158L167.546 234.226C168.021 234.554 168.731 234.477 169.125 234.056C168.622 233.727 167.906 233.771 167.447 234.158ZM161.959 3.88154C169.69 8.50832 174.755 16.7139 177.262 25.3449C177.625 26.5941 177.933 27.9742 177.395 29.1592C176.872 30.3122 175.192 30.971 174.283 30.1289L174.209 30.0552C172.97 28.7289 171.25 31.2362 171.331 33.0461C171.748 42.3222 177.666 50.3633 180.419 59.2343C183.105 67.8861 182.723 77.1461 182.315 86.193C181.748 98.7739 181.181 111.355 180.614 123.936C180.396 128.757 180.179 133.581 179.669 138.38C178.71 147.421 176.713 156.392 176.836 165.483C176.993 177.164 180.635 188.494 184.475 199.532C186.073 204.126 187.777 208.82 190.956 212.508C194.135 216.196 199.151 218.712 203.9 217.597C200.531 220.964 194.777 220.846 190.595 218.556C186.413 216.265 183.469 212.287 180.793 208.349C179.086 205.837 174.446 210.836 172.43 208.562C174.91 208.043 177.254 206.898 179.184 205.262C174.967 194.165 170.75 183.067 166.532 171.969C163.932 173.796 161.241 175.722 159.729 178.511C158.216 181.3 158.286 185.216 160.754 187.216C166.795 192.111 164.863 201.858 168.469 208.734C170.448 212.508 174.256 216.083 173.188 220.205C172.351 223.436 168.876 225.123 165.781 226.395C164.327 226.992 162.789 227.602 161.23 227.399C159.671 227.196 158.143 225.856 158.336 224.301C158.68 221.519 163.566 221.016 163.654 218.215C163.678 217.428 163.275 216.699 162.884 216.016C160.239 211.394 157.594 206.773 154.949 202.152C151.855 208.611 150.613 215.937 151.406 223.05C151.655 225.282 149.985 227.373 147.954 228.348C145.924 229.323 143.598 229.427 141.345 229.514C139.5 229.584 137.536 229.626 135.951 228.681C134.367 227.736 133.479 225.407 134.671 224.002C135.745 222.738 137.713 222.908 139.278 222.353C143.436 220.879 143.614 215.165 143.023 210.807L139.596 185.549C139.018 181.286 138.371 176.842 135.903 173.313C127.412 161.172 138.521 142.658 130.493 130.209C128.028 126.387 125.549 122.42 124.724 117.953C123.899 113.485 125.095 108.348 128.8 105.699C131.58 103.712 131.914 99.8153 132.294 96.4271C132.991 90.2218 134.693 84.1298 137.315 78.4585C131.336 74.1129 124.088 71.522 116.699 71.089C116.928 72.4347 117.415 73.7363 118.127 74.9023C113.874 73.3102 110.597 69.3686 109.818 64.9091C109.138 66.4851 108.457 68.061 107.776 69.637C101.921 57.7075 106.135 43.5354 110.421 30.9614C111.669 27.3002 112.917 23.639 114.165 19.9778C115.667 15.5726 117.814 10.5435 122.338 9.39439C125.123 8.68711 128.877 11.3608 127.407 13.8216C123.755 12.9069 119.868 14.8849 117.459 17.7686C115.05 20.6523 113.817 24.3058 112.633 27.8673C108.663 39.8141 104.651 52.5422 107.654 64.766C108.111 63.9156 108.983 63.299 109.939 63.1491C110.927 65.9169 112.442 68.4965 114.382 70.7089C118.482 69.2054 123.007 68.8693 127.286 69.7501C126.96 70.1505 126.634 70.551 126.308 70.9514C129.708 73.2629 133.645 74.7841 137.719 75.3605C139.91 71.6544 142.101 67.9484 144.292 64.2424L144.696 63.5584C146.645 60.2452 148.544 56.8218 149.153 53.0414C142.492 54.7059 135.673 55.7432 128.816 56.1348C125.827 56.3055 122.503 56.2379 120.301 54.2173C118.963 52.9896 118.269 51.224 117.758 49.4846C115.913 43.2005 115.94 36.3832 117.836 30.114C115.141 29.9536 114.383 25.9625 115.946 23.7698C117.51 21.5772 120.23 20.597 122.497 19.1362C128.22 15.4482 131.13 8.58333 136.512 4.41674C143.633 -1.09636 154.229 -0.745229 161.959 3.88154ZM232.12 84.9463C238.046 88.0177 243.363 92.2588 247.675 97.354C247.897 100.102 248.333 102.833 248.978 105.513C249.862 102.938 250.757 100.2 250.168 97.5417C249.579 94.8832 246.879 92.4969 244.274 93.286C245.358 91.9564 247.476 91.8184 248.964 92.6724C250.451 93.5264 251.362 95.1463 251.794 96.8067C253.177 102.131 250.235 107.639 246.616 111.781C245.038 113.588 243.278 115.313 242.312 117.509C241.345 119.704 241.388 122.568 243.148 124.199C247.546 128.275 249.014 134.706 248.768 140.699C248.523 146.692 246.814 152.517 245.857 158.438C244.795 165.01 244.663 171.731 245.464 178.339C245.712 180.38 246.069 182.468 247.135 184.226C248.2 185.984 250.129 187.358 252.179 187.207C251.521 188.148 250.022 188.295 249.144 187.589L249.067 187.522L250.089 188.584C250.487 188.998 250.885 189.413 251.284 189.827C250.32 189.625 249.356 189.423 248.392 189.221C256.449 193.801 264.792 197.878 273.357 201.417C272.857 199.734 271.092 198.818 269.496 198.088C265.037 196.049 260.578 194.01 256.12 191.971C262.818 192.578 269.286 195.488 274.185 200.097C280.087 205.649 289.638 205.339 296.038 210.309C297.41 211.374 298.645 212.735 299.106 214.41C299.753 216.765 298.717 219.339 297.012 221.086C295.306 222.833 293.024 223.888 290.741 224.753C283.921 227.336 276.587 228.555 269.298 228.317C268.68 227.23 269.298 225.782 270.304 225.039C271.311 224.297 272.593 224.069 273.815 223.806C279.017 222.688 283.997 220.551 288.392 217.552C289.379 216.878 290.451 215.669 289.817 214.655C289.582 214.279 289.164 214.064 288.763 213.873C281.862 210.578 274.152 208.994 266.511 209.301L273.278 208.078C267.316 204.522 261.049 201.478 254.568 198.991C252.553 198.218 250.1 197.553 248.387 198.866C244.207 202.072 240.026 205.278 235.846 208.484C241.236 208.579 246.601 209.905 251.415 212.332C250.314 214.739 247.838 216.457 245.198 216.646C246.447 215.364 247.696 214.083 248.946 212.802C240.047 207.285 227.356 213.05 218.445 207.554C214.47 205.103 211.835 200.685 207.526 198.885C203.416 197.168 198.733 198.215 194.409 199.284C191.573 199.985 188.593 200.764 186.5 202.803C186.558 200.752 188.508 199.267 190.424 198.536C192.341 197.805 194.47 197.468 196.084 196.2C197.721 194.915 198.557 192.883 199.848 191.251C201.139 189.618 203.427 188.33 205.251 189.333C204.688 184.997 208.372 181.462 210.869 177.873C213.712 173.787 215.232 168.794 215.148 163.816C211.98 165.5 210.555 169.841 212.109 173.076C212.799 174.512 211.425 176.325 209.835 176.438C208.246 176.551 206.787 175.381 206.069 173.959C205.35 172.536 205.22 170.899 205.112 169.309C204.961 167.062 204.835 164.768 205.413 162.592C206.509 158.468 209.948 155.401 213.517 153.064C217.086 150.728 221.004 148.816 223.996 145.774C227.297 142.42 229.253 137.777 229.348 133.071C230.724 139.341 227.477 146.338 221.801 149.333C216.781 151.981 211.677 154.984 208.533 159.71C205.389 164.436 204.831 171.355 208.735 175.476C208.095 172.128 208.99 168.516 211.12 165.855C212.844 163.7 215.254 162.221 217.637 160.829C223.162 157.6 228.817 154.594 234.584 151.821C234.193 150.333 235.425 148.645 236.961 148.565C235.225 145.801 236.872 141.568 240.019 140.705C239.091 141.89 238.136 143.131 237.828 144.603C237.52 146.076 238.075 147.846 239.459 148.435C236.735 148.453 236.264 152.795 233.762 153.874C228.61 156.095 223.618 158.688 218.838 161.624C218.485 161.842 218.121 162.082 217.78 162.347C217.845 162.346 217.915 162.365 217.986 162.405C218.351 164.905 218.398 167.451 218.125 169.962C218.087 170.313 217.932 170.762 217.578 170.746C217.217 170.729 217.112 170.253 217.111 169.893L217.1 163.525C217.1 163.286 217.164 163.005 217.275 162.778C216.612 163.405 216.133 164.154 216.173 165.046C216.384 169.738 215.012 174.487 212.332 178.344C215.292 175.767 218.251 173.191 221.21 170.614C222.161 169.785 224.198 169.39 224.174 170.652C219.642 173.667 215.037 176.747 211.604 180.97C208.171 185.194 206.026 190.814 207.22 196.125C205.894 195.63 205.778 193.86 205.464 192.48C205.151 191.1 203.472 189.658 202.53 190.713C200.298 193.213 198.065 195.714 195.833 198.214C200.774 195.155 207.768 195.953 211.894 200.046C217.361 205.47 224.812 210.633 232.197 208.453C238.87 206.484 242.77 199.189 249.292 196.767C243.33 182.337 242.072 166.006 245.752 150.833C246.785 146.575 248.206 142.274 247.743 137.917C247.025 131.166 241.953 125.655 240.265 119.079C239.544 120.982 237.677 122.397 235.65 122.576C237.971 119.602 240.292 116.627 242.613 113.653C246.165 109.101 246.963 102.55 244.583 97.29C242.203 92.0296 236.739 88.3016 230.973 88.0324C231.7 88.7363 232.427 89.4402 233.154 90.1441C231.829 90.605 230.504 91.0659 229.18 91.5268C228.931 90.6344 228.682 89.742 228.434 88.8496C229.424 88.0491 230.414 87.2487 231.405 86.4482C229.513 86.8762 227.621 87.3042 225.729 87.7322C227.357 85.9814 229.729 84.9463 232.12 84.9463ZM134.084 9.85127C128.525 13.8394 123.96 19.0216 119.447 24.156C118.314 25.4878 120.451 27.145 122.157 27.5436C129.818 29.3333 137.775 29.8595 145.607 29.0945C143.514 32.0504 139.251 32.4086 135.661 31.8706C132.07 31.3326 128.382 30.1924 124.891 31.1852C132.029 34.293 139.669 36.2551 147.425 36.9727L144.809 38.5039C150.068 41.3326 151.684 48.3668 150.385 54.1792C149.085 59.9916 145.587 65.0259 142.769 70.2771C137.704 79.7137 134.713 90.2479 134.064 100.929C141.252 98.3236 143.705 89.5141 144.38 81.9229C145.055 74.3318 145.363 65.7893 150.984 60.6209C146.712 70.2494 145.181 81.068 146.617 91.4978C140.627 96.9364 134.638 102.375 128.649 107.814C124.262 111.797 126.447 118.955 128.938 124.322C129.241 124.975 129.578 125.667 130.199 126.034C131.739 126.943 133.624 125.11 133.785 123.334C133.945 121.558 133.174 119.815 133.205 118.032C133.235 116.249 134.745 114.212 136.446 114.767C134.601 113.141 136.842 110.251 139 109.066C144.73 105.921 151.202 104.125 157.739 103.866C159.71 103.788 160.594 101.444 161.22 99.5807C161.847 97.7172 163.548 95.5672 165.34 96.3885C162.098 85.0313 168.658 73.2104 168.502 61.404C172.482 72.5455 162.054 85.557 167.266 96.1816C165.237 97.4775 163.208 98.7734 161.18 100.069C162.881 100.76 164.33 102.052 165.208 103.66C155.274 104.596 145.519 107.383 136.597 111.835C138.465 113.058 137.858 116.513 135.684 117.03C132.46 130.509 133.959 145.062 139.864 157.607C140.843 152.337 144.53 147.641 149.427 145.425C144.339 149.446 141.35 155.665 140.143 162.023C138.935 168.381 139.354 174.93 140.057 181.363C140.82 188.352 141.912 195.307 143.328 202.194C144.293 206.885 145.411 211.725 144.412 216.408C143.413 221.092 139.581 225.576 134.776 225.571C137.969 227.441 141.81 228.189 145.475 227.654C148.939 227.148 150.425 222.877 150.182 219.398C149.938 215.918 148.723 212.36 149.752 209.026C150.263 207.367 151.297 205.916 151.925 204.296C153.051 201.393 152.803 198.172 152.86 195.06C152.988 188.069 154.765 181.114 158.007 174.913C158.568 176.015 158.365 177.456 157.521 178.363C171.23 167.31 179.419 149.769 179.072 132.202L177.907 134.069C178.952 116.007 179.997 97.9441 181.042 79.8816C181.301 75.4141 181.557 70.9025 180.821 66.4881C178.731 53.9493 168.804 42.8505 170.268 30.224C167.34 29.2314 164.411 28.2388 161.483 27.2462C165.506 27.5655 169.53 27.8848 173.554 28.2041C174.213 28.2563 174.967 28.2744 175.423 27.7984C175.891 27.3107 175.822 26.5341 175.678 25.8751C173.87 17.5724 165.792 12.3919 158.414 8.13124C162.484 8.74244 166.316 10.8209 169.04 13.8949C166.554 7.72978 159.862 3.90297 153.205 3.5154C146.366 3.1173 139.643 5.86314 134.084 9.85127ZM283.126 222.129C280.121 224.56 276.006 224.892 272.2 225.56C271.547 225.675 270.759 225.935 270.652 226.59C271.346 227.02 272.218 227.003 273.033 226.956C279.717 226.571 286.335 225.06 292.525 222.505C292.177 221.706 291.025 221.808 290.187 222.045C289.559 222.223 288.931 222.401 288.303 222.579C287.588 222.781 286.806 222.981 286.121 222.692C285.436 222.403 285.044 221.387 285.604 220.898C284.661 220.769 283.866 221.531 283.126 222.129ZM156.421 184.084C155.18 188.285 154.619 192.752 155.386 197.064C156.507 203.371 160.319 208.813 163.731 214.241C164.779 215.907 165.838 217.805 165.441 219.731C165.012 221.818 163.043 223.175 161.233 224.31C164.234 225.758 167.647 223.571 170.25 221.497C170.645 221.182 171.068 220.823 171.154 220.327C171.233 219.871 171.006 219.425 170.786 219.018C168.277 214.369 165.767 209.721 163.257 205.073L163.2 201.804C163.166 199.904 163.131 197.983 162.666 196.14C161.555 191.739 158.154 188.28 156.421 184.084ZM87.7735 221.964C87.9879 222.159 88.1014 222.451 88.323 222.637C88.6637 222.924 89.1535 222.889 89.5917 222.947C90.03 223.005 90.5361 223.295 90.4981 223.743C89.2544 224.422 87.6039 224.228 86.5451 223.278C86.2233 222.947 86.2177 222.353 86.5331 222.016C86.8485 221.678 87.4322 221.654 87.7735 221.964ZM267.504 219.353C267.789 219.401 268.156 219.567 268.093 219.849C268.061 219.99 267.927 220.079 267.803 220.152C266.328 221.01 264.653 221.521 262.951 221.631C262.334 221.671 261.809 222.066 261.335 222.473L261.227 222.567C260.724 223.005 260.181 223.469 259.519 223.54C258.857 223.611 258.097 223.065 258.223 222.41C258.335 221.83 258.999 221.569 259.566 221.409C260.592 221.119 261.618 220.83 262.644 220.54C262.781 220.358 262.831 220.114 262.777 219.893L255.391 220.001C255.109 220.005 254.81 220.005 254.572 219.855C254.333 219.706 254.203 219.348 254.386 219.134C258.737 218.552 263.175 218.626 267.504 219.353ZM249.661 192.268C248.885 193.336 249.356 194.933 250.334 195.82C251.313 196.706 252.647 197.06 253.927 197.386C255.142 197.694 256.357 198.003 257.572 198.312C257.902 198.396 258.282 198.471 258.557 198.272C258.726 198.15 258.758 197.888 258.68 197.712L258.668 197.689L259.332 198.076C269.235 203.794 279.672 208.587 290.462 212.373C292.154 212.966 292.538 215.379 291.644 216.933C290.749 218.488 289.052 219.368 287.439 220.153C286.803 220.462 286.264 221.573 286.97 221.627C288.999 220.646 291.34 220.324 293.559 220.72C295.586 221.082 297.568 219.276 297.858 217.237C298.148 215.198 297.07 213.154 295.538 211.778C294.006 210.402 292.067 209.58 290.153 208.824C278.264 204.128 265.615 200.938 254.881 193.997C253.585 193.159 251.641 192.359 250.724 193.6L249.661 192.268ZM184.944 211.752C187.279 214.871 190.608 217.24 194.327 218.428C195.46 218.79 196.673 219.046 197.838 218.797C197.816 218.229 197.091 218.025 196.529 217.928C194.411 217.56 192.426 216.468 190.987 214.876C190.264 214.077 189.665 213.149 188.799 212.506C187.713 211.702 186.258 211.431 184.944 211.752ZM107.664 207.351C108.72 207.41 108.097 209.425 108.991 209.992C109.347 210.218 109.808 210.11 110.223 210.036C112.684 209.592 115.357 210.724 116.757 212.802C117.109 213.323 116.767 214.086 116.216 214.388C115.666 214.69 114.998 214.655 114.375 214.582C113.401 214.469 112.724 215.516 112.387 216.439C112.05 217.361 111.653 218.459 110.703 218.702C109.976 218.888 109.234 218.462 108.663 217.973C108.091 217.485 107.562 216.898 106.849 216.661C106.136 216.424 105.167 216.74 105.046 217.483C104.916 218.289 103.813 218.396 103.005 218.298L100.118 217.948C99.9433 217.151 101.074 216.75 101.88 216.856C102.687 216.962 103.716 217.124 104.129 216.421C104.343 216.057 104.291 215.568 104.554 215.238C104.99 214.694 105.855 214.988 106.464 215.325C107.117 215.684 107.769 216.044 108.422 216.404C109.02 216.733 109.665 217.073 110.344 217.005C111.023 216.936 111.677 216.256 111.45 215.611C111.161 214.787 112.035 213.995 112.881 213.785C113.727 213.575 114.663 213.649 115.413 213.205C113.936 211.319 111.004 210.778 108.954 212.014C108.338 212.385 107.766 211.426 107.771 210.706C107.775 209.986 107.74 209.012 107.036 208.871C106.5 208.762 106.071 209.278 105.685 209.667C105.3 210.056 104.566 210.323 104.277 209.858C104.643 208.377 106.145 207.265 107.664 207.351ZM132.167 211.805C133.171 212.178 134.263 212.625 134.744 213.548C135.226 214.471 134.534 215.914 133.473 215.73C133.305 215.501 133.297 215.174 133.455 214.938C133.584 214.744 133.82 214.59 133.826 214.36C133.833 214.124 133.597 213.958 133.388 213.835C132.292 213.191 131.196 212.547 130.1 211.903C130.557 211.343 131.475 211.548 132.167 211.805ZM169.814 214.093L169.819 214.301C169.836 214.695 170.097 215.069 170.462 215.222C170.723 214.769 170.339 214.099 169.814 214.093ZM94.7001 211.065C93.8334 211.971 92.6679 212.527 91.4718 212.604C91.7934 212.979 92.0568 213.413 92.247 213.882C91.4414 214.186 90.6848 213.348 90.1738 212.601C89.9756 212.312 89.7777 211.895 89.9945 211.622C90.0802 211.514 90.2107 211.464 90.3356 211.422C91.7418 210.949 93.2453 210.826 94.7001 211.065ZM175.388 158.58C173.201 162.56 170.615 166.323 167.681 169.793C167.14 170.433 167.505 171.397 167.875 172.147C173.632 183.785 176.284 196.777 182.293 208.287C182.81 209.279 183.451 210.342 184.52 210.679C185.59 211.016 187.016 210.012 186.598 208.975C180.104 192.872 174.312 175.9 175.388 158.58ZM94.4568 198.429C94.7372 198.624 94.7354 199.053 94.7155 199.409C94.5879 201.683 95.0139 203.99 95.9407 206.044C96.2523 206.734 97.2607 206.511 97.7911 205.994C98.3214 205.477 98.7577 204.74 99.4665 204.612C100.217 204.477 100.927 205.148 101.164 205.919C101.4 206.689 101.282 207.526 101.162 208.327C101.089 208.814 100.986 209.355 100.606 209.637C100.226 209.919 99.5306 209.62 99.6379 209.14L100.062 207.245C100.117 207 100.169 206.731 100.067 206.504C99.8926 206.117 99.3655 206.079 99.0043 206.27C98.643 206.46 98.3737 206.803 98.034 207.034C96.9462 207.774 95.4128 207.135 94.6517 206.024C93.8907 204.914 93.7026 203.485 93.5377 202.121C92.869 204.404 92.6513 206.836 92.9029 209.213C92.5646 209.564 92.0886 208.956 91.9862 208.465C91.328 205.305 91.8176 201.889 93.3311 199.083C93.5709 198.638 94.0539 198.148 94.4568 198.429ZM114.5 203.726C112.9 204.369 111.558 205.612 110.809 207.145C110.643 207.485 110.056 207.362 109.901 207.016C109.746 206.671 109.888 206.269 110.065 205.934C110.525 205.062 111.224 204.313 112.068 203.788C111.079 203.715 110.089 203.641 109.1 203.568C110.513 202.143 113.176 202.221 114.5 203.726ZM102.094 201.358C102.814 201.466 103.364 202.028 103.82 202.581C103.362 202.626 102.921 202.828 102.593 203.143C103.162 203.739 103.731 204.335 104.3 204.932C102.743 205.084 101.152 204.027 100.729 202.559C100.532 201.875 101.374 201.251 102.094 201.358ZM271.077 143.768C275.884 158.651 278.498 174.221 278.811 189.837C281.83 187.172 285.74 185.504 289.778 185.16C287.656 185.905 286.295 187.971 285.541 190.064C284.788 192.156 284.48 194.394 283.615 196.444C290.237 194.416 297.484 194.425 304.1 196.469C298.427 198.088 293.07 200.776 288.405 204.346C287.594 203.895 288.301 202.681 289.046 202.131C292.058 199.911 295.401 198.129 298.935 196.862C293.314 195.757 287.395 196.159 281.981 198.015C282.974 194.652 283.823 191.248 284.526 187.815C280.653 189.616 277.114 192.113 274.135 195.147C273.362 194.453 274.486 193.368 275.285 192.702C277.43 190.913 277.52 187.735 277.378 184.968C276.83 174.257 275.4 163.529 272.122 153.303C272.43 164.83 270.062 176.419 265.252 186.93C265.029 187.418 264.263 187.906 264.094 187.396C264.244 186.814 264.393 186.232 264.543 185.65C263.133 183.858 262.465 181.514 262.723 179.26C260.205 182.237 258.016 185.484 256.207 188.925C255.411 189.132 255.341 187.796 255.731 187.08C257.861 183.177 260.556 179.575 263.707 176.414C264.051 179.176 264.394 181.937 264.738 184.698C270.283 172.094 272.178 157.952 270.142 144.361C270.212 143.956 270.674 143.663 271.077 143.768ZM111.222 197.88C111.548 198.075 111.619 198.622 111.264 198.766C110.69 198.999 110.783 199.775 110.923 200.348C111.062 200.921 110.955 201.75 110.33 201.784C109.787 201.814 109.514 201.175 109.484 200.665C109.454 200.156 109.439 199.536 108.962 199.289C107.465 200.175 105.968 201.061 104.47 201.946C104.038 201.467 104.508 200.749 105.001 200.324C106.43 199.095 108.204 198.222 110.095 197.82C110.472 197.739 110.896 197.684 111.222 197.88ZM245.866 195.494C245.997 195.714 245.713 196.122 245.624 195.863L245.621 195.837C245.467 195.831 245.325 195.653 245.3 195.436C245.49 195.339 245.735 195.275 245.866 195.494ZM41.4134 174.597C41.3092 176.231 41.3118 177.872 41.421 179.506C41.5231 181.033 41.8083 182.72 43.0205 183.66C43.406 183.959 44.0928 184.085 44.2842 183.638C44.331 183.528 44.3337 183.406 44.3345 183.287C44.3536 180.728 43.8681 178.166 42.9138 175.79C42.65 175.133 42.0839 174.364 41.4134 174.597ZM134.737 147.937L133.895 154.941C133.629 157.158 133.362 159.391 133.53 161.617C133.752 164.555 134.721 167.379 135.711 170.155C136.332 171.9 137.019 173.721 138.424 174.934C137.6 170.374 137.799 165.634 139.002 161.158C139.108 160.762 139.223 160.362 139.216 159.952C139.206 159.32 138.908 158.734 138.633 158.165C136.99 154.774 135.901 151.117 135.42 147.382C135.209 147.059 134.783 147.554 134.737 147.937ZM210.086 170.362C209.822 171.665 210.261 173.088 211.214 174.015C211.247 172.718 210.844 171.414 210.086 170.362ZM229.1 80.3051C228.117 84.6303 223.345 86.4965 219.595 88.6889C216.93 90.2476 214.527 92.2814 212.525 94.6729C212.049 95.2409 211.176 94.8136 210.498 94.541C208.378 93.6887 205.809 95.0408 204.846 97.1656C203.883 99.2903 204.336 101.895 205.581 103.858C206.827 105.82 208.763 107.217 210.798 108.268C211.436 107.959 211.241 106.9 210.684 106.454C210.127 106.007 209.38 105.892 208.789 105.496C208.238 105.128 207.861 104.543 207.532 103.958C206.549 102.209 205.845 100.055 206.603 98.1913C207.361 96.3273 210.166 95.4452 211.327 97.0744C213.094 99.5538 209.093 103.428 210.922 105.859C210.747 104.667 211.42 103.396 212.487 102.902C212.417 105.131 212.346 107.361 212.276 109.59C212.81 109.023 213.553 108.67 214.319 108.618C214.395 110.665 214.628 112.705 215.016 114.713C215.482 114.409 215.699 113.754 215.511 113.22L228.763 125.369C225.877 124.022 223.182 122.24 220.793 120.095C223.177 124.616 220.851 130.081 219.431 135.014C218.23 139.191 217.708 143.574 217.895 147.926C217.04 147.014 215.554 147.688 214.574 148.454C211.423 150.918 208.75 154.027 206.756 157.546C206.512 157.123 206.534 156.593 206.623 156.11C207.185 153.043 209.897 150.989 212.288 149.073C214.679 147.157 217.153 144.583 216.905 141.472C216.57 137.269 218.507 133.283 219.689 129.246C220.872 125.208 221.081 120.234 218.067 117.381C217.023 116.392 215.692 115.772 214.64 114.792C213.588 113.812 212.832 112.221 213.43 110.896C212.92 111.201 212.411 111.507 211.901 111.812C211.759 109.763 209.43 108.851 207.679 107.869C204.674 106.185 202.477 102.784 202.718 99.2683C202.96 95.7529 206.025 92.5152 209.44 92.7134C210.906 92.7986 212.789 93.2625 213.517 91.9486C216.208 87.095 223.186 86.5358 226.355 81.9992C227.045 81.0106 228.082 79.6859 229.1 80.3051ZM130.748 128.384L130.668 128.553C130.927 128.614 131.186 128.676 131.445 128.737C131.785 128.376 131.71 127.662 131.238 127.508C130.766 127.354 130.316 128.141 130.748 128.384ZM217.829 110.746C217.878 111.479 218.113 112.201 218.508 112.833C218.506 112.38 219.266 112.259 219.595 112.588C219.924 112.917 219.925 113.423 219.907 113.876C221.43 113.717 222.516 115.151 223.658 116.119C226.318 118.374 230.286 118.376 233.852 118.184C234.838 118.131 236.148 118.303 236.3 119.226C234.625 119.793 232.8 119.791 231.024 119.703C228.246 119.566 225.43 119.22 222.896 118.135C220.362 117.05 218.12 115.136 217.233 112.642C216.979 111.928 217.044 110.87 217.829 110.746ZM219.816 107.747C220.824 110.41 224.48 111.801 227.127 110.528C227.6 110.301 228.049 110.001 228.57 109.907C229.447 109.749 230.298 110.202 231.115 110.544C232.265 111.025 233.552 111.308 234.782 111.065C236.011 110.823 237.159 109.968 237.45 108.801C237.525 108.5 237.552 108.169 237.761 107.934C237.969 107.698 238.455 107.671 238.557 107.964C239.147 109.652 237.833 111.545 236.098 112.187C234.362 112.83 232.392 112.488 230.653 111.854C230.069 111.641 229.47 111.391 228.846 111.436C228.219 111.481 227.663 111.817 227.089 112.063C224.427 113.207 220.969 112.25 219.357 109.924C219.091 109.541 218.866 109.1 218.905 108.641C218.943 108.182 219.335 107.727 219.816 107.747ZM247.198 105.618C247.042 106.37 247.143 107.172 247.481 107.861C248.006 107.617 248.323 106.99 248.207 106.423L248.211 106.42C248.203 105.928 247.679 105.513 247.198 105.618ZM228.602 104.155C229.048 104.218 229.408 104.596 229.724 104.969C230.364 105.724 230.958 106.532 231.5 107.386C229.924 107.829 228.265 107.864 226.676 107.488C226.186 107.372 225.985 106.613 226.166 106.067C226.347 105.521 226.774 105.151 227.181 104.811C227.606 104.456 228.084 104.083 228.602 104.155ZM227.701 106.439L227.853 106.515L228.901 106.279C229.019 106.087 229.063 105.837 229.021 105.606C228.498 105.303 227.774 105.76 227.701 106.439ZM208.024 98.0057C207.433 98.6123 207.317 99.579 207.509 100.416C207.846 101.882 208.988 103.078 209.184 104.572C209.594 104.457 209.775 103.946 209.747 103.509C209.72 103.073 209.551 102.654 209.533 102.217C209.472 100.755 211.05 99.2432 210.224 98.0525C209.739 97.3531 208.615 97.399 208.024 98.0057ZM238.548 92.7538C240.225 92.8701 241.529 94.3327 242.436 95.8315C243.169 97.0425 243.781 98.5165 243.366 99.8861C242.807 101.729 240.751 102.442 238.974 102.892L237.105 103.367C236.608 103.493 236.089 103.619 235.592 103.497C234.904 103.328 234.399 102.724 233.942 102.154C233.016 100.997 232.037 99.6821 232.103 98.1672C232.181 96.403 233.635 95.0934 235.026 94.12C236.089 93.3762 237.277 92.6656 238.548 92.7538ZM225.017 95.1636C226.615 96.2916 227.64 98.2758 227.196 100.128C226.753 101.98 224.593 103.402 222.706 102.81C220.977 102.268 219.188 101.671 217.901 100.44C216.613 99.2096 215.999 97.1517 216.993 95.6937C217.55 94.8773 218.512 94.38 219.498 94.1372C221.374 93.6758 223.458 94.0634 225.017 95.1636ZM238.69 94.8218C237.639 94.9612 236.564 95.0297 235.576 95.4338C234.589 95.838 233.678 96.6595 233.467 97.7586C233.193 99.182 234.125 100.519 234.999 101.638C235.41 102.162 236.16 102.161 236.797 102.066C238.732 101.779 240.606 101.037 242.245 99.9091C241.416 99.706 240.586 99.5029 239.756 99.2997C239.868 98.7714 240.555 98.7467 241.065 98.7667C241.576 98.7867 242.273 98.4455 242.088 97.9409C241.302 97.6926 240.479 97.5813 239.66 97.6129C239.419 97.6222 239.136 97.6723 239.029 97.9011C238.946 98.0789 239.006 98.2897 239.043 98.4844C239.289 99.787 238.127 101.161 236.878 101.044C235.63 100.927 234.713 99.3583 235.171 98.1216C235.629 96.8849 237.308 96.3957 238.299 97.2103C238.52 97.0002 238.498 96.5711 238.257 96.3877C238.986 95.8566 239.944 95.6932 240.794 95.9546C240.894 95.4733 240.513 95.0003 240.072 94.8435C239.631 94.6867 239.151 94.7606 238.69 94.8218ZM220.172 95.5426C218.947 95.6969 217.503 96.5004 217.724 97.6633C217.88 98.4797 218.872 98.9568 219.731 98.8433C220.59 98.7298 221.315 98.1812 221.923 97.5891L219.379 97.7899C219.047 97.8161 218.558 97.6617 218.678 97.3641C218.712 97.2808 218.791 97.2231 218.868 97.1734C219.971 96.4659 221.564 96.5586 222.568 97.389C223.55 97.6997 224.497 98.3961 224.667 99.3717C224.837 100.347 223.833 101.446 222.855 101.125C222.769 101.849 223.932 102.074 224.593 101.711C226.186 100.839 226.335 98.4771 225.176 97.1159C224.018 95.7547 221.991 95.3135 220.172 95.5426ZM219.536 99.2708C219.407 100.242 220.487 101.168 221.481 100.939C221.189 100.19 220.533 99.5798 219.742 99.3212L219.536 99.2708ZM221.997 99.753L223.053 100.595L223.084 100.443C223.531 100.212 223.564 99.4989 223.141 99.2304C222.718 98.962 222.045 99.2692 221.997 99.753ZM237.049 98.2737C236.491 98.3289 236.166 99.1648 236.536 99.6113L236.429 99.6204C236.768 100.093 237.582 100.02 237.828 99.486C238.074 98.9524 237.607 98.2185 237.049 98.2737ZM119.432 31.0082C118.743 31.8704 118.512 33.0016 118.351 34.092C117.537 39.6137 118.01 45.3197 119.724 50.6332C120.033 51.5922 120.399 52.5667 121.088 53.3039C122.971 55.319 126.227 54.753 128.952 54.2905C131.487 53.8602 134.061 53.6599 136.632 53.6928C137.824 53.7081 138.999 53.437 140.16 53.1675C143.227 52.4553 146.295 51.743 149.362 51.0308C149.401 46.9491 147.748 42.8769 144.874 39.9685C144.442 39.5319 143.768 39.0991 143.266 39.4525C143.819 40.0109 143.655 41.0893 142.96 41.4588C142.133 41.1572 142.428 39.9355 142.196 39.0891C141.898 38.0001 140.636 37.5268 139.533 37.2696C133.872 35.9494 127.288 35.7243 123.526 31.307C123.176 30.8959 122.846 30.4438 122.371 30.185C121.401 29.6559 120.121 30.146 119.432 31.0082ZM160.127 14.191C163.407 15.7225 166.321 18.1072 168.535 21.0716C168.834 21.472 169.135 21.9323 169.097 22.4395C169.027 23.361 167.97 23.7594 167.106 23.943C165.576 24.2679 164.047 24.5928 162.517 24.9178C161.958 25.0366 161.077 24.7807 161.306 24.2325C163.148 23.0521 165.358 22.5147 167.507 22.7243C167.679 22.3512 167.474 21.9126 167.246 21.5739C166.495 20.4551 165.465 19.5804 164.45 18.7211C162.8 17.325 161.15 15.9289 159.5 14.5328C159.535 14.2451 159.883 14.0556 160.127 14.191ZM148.077 9.65961C149.518 10.3243 150.039 12.0475 150.3 13.585C150.463 14.5402 150.585 15.5183 150.425 16.4739C150.145 18.1464 148.994 19.6068 147.533 20.5179C146.072 21.4291 144.328 21.8329 142.599 21.9255C138.593 22.1401 134.521 20.6882 131.595 18.002C130.322 16.8327 130.494 14.6817 131.564 13.3317C132.635 11.9816 134.348 11.2839 136.031 10.8306C137.938 10.3172 139.902 10.0442 141.86 9.77239C143.204 9.5858 144.552 9.39894 145.908 9.35365C146.645 9.32906 147.41 9.35195 148.077 9.65961ZM132.095 15.0969C131.654 15.8657 132.381 16.7574 133.048 17.3502C134.355 18.5116 135.992 19.7599 137.698 19.3148C138.842 19.0163 140.07 17.9991 141.024 18.6846C140.944 19.0545 140.51 19.2327 140.127 19.2809C139.743 19.3291 139.325 19.317 139.012 19.5386C138.699 19.7602 138.653 20.3441 139.024 20.4504C140.234 20.7972 141.362 19.7779 142.222 18.8766C143.083 17.9753 144.319 17.0251 145.474 17.52C145.627 17.5857 145.787 17.7032 145.789 17.867C145.792 18.1059 145.487 18.2081 145.249 18.2604C143.978 18.5392 142.842 19.3598 142.195 20.4658C143.888 20.224 145.405 19.348 146.873 18.4899C147.912 17.8829 149.052 17.1371 149.261 15.9717C147.811 16.3911 146.302 16.6183 144.789 16.6452C141.624 16.7014 138.546 18.6085 135.46 17.917C134.679 17.7421 134.142 17.0626 133.672 16.4282C134.159 15.9712 134.939 16.348 135.575 16.5679C136.212 16.7879 137.233 16.4514 136.996 15.8331C136.249 15.5221 135.503 15.211 134.756 14.9C133.855 14.5247 132.574 14.2614 132.095 15.0969ZM139.202 15.395C138.98 15.4251 138.735 15.4836 138.618 15.6698C138.448 15.939 138.679 16.3109 138.985 16.4137C139.29 16.5164 139.625 16.4336 139.936 16.3504C140.707 16.1449 141.477 15.9393 142.247 15.7338C141.283 15.3733 140.224 15.2556 139.202 15.395ZM146.252 14.0707C145.07 14.5052 143.838 14.9733 143.01 15.9044C144.857 15.5903 146.738 15.4624 148.612 15.5232C149.276 15.2342 149.028 14.1392 148.362 13.8552C147.697 13.5712 146.932 13.8207 146.252 14.0707ZM147.197 11.4694C146.541 11.5215 145.956 11.8736 145.343 12.1081C143.6 12.7742 141.655 12.4849 139.787 12.3864C138.146 12.2998 136.492 12.37 134.881 12.6869C134.015 12.8573 133.003 13.2698 132.893 14.1274C134.37 13.4492 136.089 13.6912 137.716 13.8087C141.398 14.0746 145.133 13.6156 148.634 12.4671C148.62 11.823 147.853 11.4172 147.197 11.4694ZM121.231 11.6787C120.796 11.8712 120.346 12.138 120.173 12.5804C119.999 13.0227 120.282 13.6466 120.759 13.6335C122.204 12.626 124.03 12.176 125.78 12.3961C126.334 12.4658 126.9 12.0168 126.956 11.463C125.113 10.81 123.02 10.8889 121.231 11.6787ZM140.302 4.11857L140.307 4.18339C139.762 3.98978 139.09 4.28884 138.872 4.82234C139.77 4.75992 140.659 4.56714 141.502 4.25199C141.499 3.75825 140.719 3.85224 140.302 4.11857ZM151.791 2.14022C151.425 2.30652 151.855 2.98924 152.164 2.73329L152.173 2.76175C152.45 2.54065 152.115 1.99461 151.791 2.14022Z" fill="#00160A"/>
</g>
<defs>
<clipPath id="clip0_429_1070">
<rect width="355" height="296" fill="white" transform="translate(0.5)"/>
</clipPath>
</defs>
</svg>
